<svg width="323" height="136" viewBox="0 0 323 136" fill="none" xmlns="http://www.w3.org/2000/svg">
<rect width="323" height="136" fill="white"/>
<path fill-rule="evenodd" clip-rule="evenodd" d="M170.706 64.0682C170.706 61.1908 170.035 58.9629 168.763 57.3333C167.513 55.7428 165.6 54.9164 162.933 54.9164C160.282 54.9164 158.177 55.7822 156.48 57.5063L156.479 57.5072C154.791 59.2119 153.922 61.6768 153.922 64.9812V65.4812H153.903V84.8406H148.273V64.0682C148.273 61.1416 147.6 58.9074 146.332 57.3085C145.083 55.7461 143.152 54.9257 140.435 54.9257C137.734 54.9257 135.622 55.793 133.945 57.5137C132.276 59.2264 131.413 61.5685 131.413 64.5992V84.8499H125.783V50.665H131.218V54.5263C132.176 53.2151 133.335 52.1746 134.696 51.4134C136.534 50.3854 138.714 49.8824 141.217 49.8824C143.911 49.8824 146.222 50.4296 148.121 51.5508C149.786 52.5337 151.11 53.9432 152.095 55.7608C153.151 54.2313 154.569 52.9188 156.345 51.8205C158.438 50.5254 160.899 49.8824 163.716 49.8824C167.693 49.8824 170.835 51.1238 173.055 53.6685C175.252 56.1863 176.337 59.3647 176.337 63.1552V84.8406H170.706V64.0682Z" fill="#21242C"/>
<path fill-rule="evenodd" clip-rule="evenodd" d="M215.959 84.8499V50.665H210.524V55.5244C207.883 51.753 203.823 49.8824 198.447 49.8824C193.444 49.8824 189.466 51.6311 186.583 55.1521C183.716 58.642 182.296 62.8659 182.296 67.7947C182.296 72.7235 183.716 76.9391 186.585 80.4019C189.477 83.8936 193.454 85.6324 198.447 85.6324C201.465 85.6324 204.077 85.0444 206.262 83.8436C207.955 82.9136 209.375 81.6251 210.524 79.9868V84.8499H215.959ZM191.096 58.6895L191.215 58.5497V58.5431C193.25 56.2216 195.937 55.0469 199.351 55.0469C202.834 55.0469 205.528 56.2509 207.509 58.6478C209.51 61.069 210.524 64.137 210.524 67.7854C210.524 71.4314 209.511 74.435 207.509 76.8577C205.528 79.2545 202.825 80.4587 199.351 80.4587C195.877 80.4587 193.143 79.2543 191.095 76.8519C189.03 74.4295 187.991 71.4188 187.991 67.7854C187.991 64.152 189.03 61.1313 191.096 58.6895Z" fill="#21242C"/>
<path fill-rule="evenodd" clip-rule="evenodd" d="M241.905 55.8202V50.4327L240.311 50.3389H240.296C237.493 50.3389 235.13 50.9014 233.25 52.0729C231.994 52.8555 230.961 53.7247 230.167 54.6872V50.6557H224.732V84.8406H230.362V65.5029C230.362 62.249 231.248 59.844 232.948 58.2048C234.665 56.5491 236.927 55.7083 239.775 55.7083C240.332 55.7083 240.857 55.7266 241.361 55.7715L241.905 55.8202Z" fill="#21242C"/>
<path fill-rule="evenodd" clip-rule="evenodd" d="M251.287 50.665H245.656V71.7635C245.656 75.7842 246.866 79.1177 249.314 81.7205C251.783 84.3461 255.342 85.6231 259.917 85.6231C264.491 85.6231 268.051 84.3461 270.52 81.7205C272.967 79.1177 274.177 75.7842 274.177 71.7635V50.665H268.547V71.4374C268.547 74.3991 267.787 76.6297 266.332 78.2066C264.886 79.7727 262.781 80.5891 259.917 80.5891C257.052 80.5891 254.947 79.7727 253.502 78.2066C252.046 76.6297 251.287 74.3991 251.287 71.4374V50.665Z" fill="#21242C"/>
<path d="M96.1054 50.1907L77.394 39.8707C72.8769 37.3764 67.4083 37.3764 62.8912 39.8707L44.1797 50.1907C42.5854 51.0736 41.4969 52.6593 41.2483 54.4679L38.0683 77.7736C37.6569 80.7564 39.1312 83.6793 41.7626 85.1107L61.2454 95.7307C66.7997 98.7564 73.494 98.7564 79.0397 95.7307L98.5226 85.1107C101.154 83.6793 102.62 80.7564 102.217 77.7736L99.0369 54.4679C98.7883 52.6507 97.6997 51.065 96.1054 50.1907Z" fill="url(#paint0_linear_4910_5170)"/>
<path d="M56.4796 54.6736L66.4225 49.2393C68.6254 48.0393 71.2825 48.0393 73.4854 49.2393L83.9597 54.9478C85.5454 55.8136 85.5368 58.0764 83.9597 58.9336L73.5282 64.5907C71.3425 65.7736 68.7025 65.7821 66.5082 64.5907L56.4968 59.1821C54.7054 58.2136 54.6968 55.6507 56.4882 54.6736H56.4796Z" fill="white"/>
<defs>
<linearGradient id="paint0_linear_4910_5170" x1="70.1415" y1="38" x2="70.1415" y2="98" gradientUnits="userSpaceOnUse">
<stop stop-color="#00C6FB"/>
<stop offset="0.859375" stop-color="#257CFF"/>
</linearGradient>
</defs>
</svg>
